
        <svg xmlns="http://www.w3.org/2000/svg" xmlns:xlink="http://www.w3.org/1999/xlink" version="1.1" width="2815.219111708265" 
        height="3169.336487922302" viewBox="0 0 2815.219111708265 3169.336487922302">
			
			<g transform="scale(8.466824396115081) translate(10, 10)">
				<defs id="SvgjsDefs5706"><linearGradient id="SvgjsLinearGradient5713"><stop id="SvgjsStop5714" stop-color="#00ddff" offset="0"></stop><stop id="SvgjsStop5715" stop-color="#ff00d4" offset="1"></stop></linearGradient><linearGradient id="SvgjsLinearGradient5716"><stop id="SvgjsStop5717" stop-color="#2d388a" offset="0"></stop><stop id="SvgjsStop5718" stop-color="#00aeef" offset="1"></stop></linearGradient></defs><g id="SvgjsG5707" featureKey="rootContainer" transform="matrix(6.3004009968354175,0,0,6.3004009968354175,0.00004657900802957603,0.02629627555398628)" fill="#ecf0f1"><path xmlns="http://www.w3.org/2000/svg" d="M23.11 55.78L1.69 43.41A3.39 3.39 0 0 1 0 40.48V15.75a3.39 3.39 0 0 1 1.69-2.94L23.11.45a3.39 3.39 0 0 1 3.39 0l21.41 12.37a3.39 3.39 0 0 1 1.69 2.94v24.72a3.39 3.39 0 0 1-1.69 2.94L26.5 55.78a3.39 3.39 0 0 1-3.39 0z"></path></g><g id="SvgjsG5708" featureKey="symbolFeature-0" transform="matrix(1.154331767609981,0,0,1.154331767609981,100.7410470187896,79.82065593286873)" fill="url(#SvgjsLinearGradient5713)"><path xmlns="http://www.w3.org/2000/svg" d="M28.036,91.512c-0.38,0-0.764-0.104-1.096-0.324c-0.708-0.467-1.048-1.332-0.844-2.155l3.552-14.353H15.872  c-0.944,0-1.764-0.656-1.956-1.584L2,16.368c-0.116-0.556,0.004-1.132,0.34-1.588c0.332-0.456,0.84-0.752,1.404-0.813L91.828,4.5  c0.607-0.072,1.22,0.156,1.648,0.592c0.428,0.436,0.631,1.056,0.547,1.66l-7.836,58.191c-0.136,0.992-0.979,1.736-1.983,1.736  H61.216L29.256,91.1C28.892,91.376,28.464,91.512,28.036,91.512L28.036,91.512z"></path></g><g id="SvgjsG5709" featureKey="nameFeature-0" transform="matrix(2.16543992767769,0,0,2.16543992767769,55.99999948371889,181.6998617523093)" fill="url(#SvgjsLinearGradient5716)"><path d="M10.96 40.08 l-4.08 0 l-2.2 -6.04 l-0.88 0 l0 6.04 l-3.8 0 l0 -28.64 l5.96 0 c2.64 0 4.76 2.12 4.76 4.76 l0 13.08 c0 1.72 -0.88 3.2 -2.24 4.04 z M3.8 15.239999999999998 l0 15 l2.16 0 c0.52 0 0.96 -0.44 0.96 -0.96 l0 -13.08 c0 -0.52 -0.44 -0.96 -0.96 -0.96 l-2.16 0 z M18.36 40.04 c-3 0 -5.4 -2.44 -5.4 -5.4 l0 -17.96 c0 -2.96 2.4 -5.36 5.4 -5.36 c2.96 0 5.36 2.4 5.36 5.36 l0 17.96 c0 2.96 -2.4 5.4 -5.36 5.4 z M18.36 15.120000000000001 c-0.88 0 -1.56 0.72 -1.56 1.56 l0 17.96 c0 0.88 0.68 1.56 1.56 1.56 c0.84 0 1.56 -0.68 1.56 -1.56 l0 -17.96 c0 -0.84 -0.72 -1.56 -1.56 -1.56 z M31.2 40.24 c-3.04 0 -5.48 -2.48 -5.48 -5.48 l0 -4.36 l3.88 0 l0 4.36 c0 0.88 0.72 1.6 1.6 1.6 s1.56 -0.72 1.56 -1.6 l0 -3.8 l-7.04 -9.72 l0 -4.96 c0 -3.04 2.44 -5.52 5.48 -5.52 c3 0 5.44 2.48 5.44 5.52 l0 4.32 l-3.88 0 l0 -4.32 c0 -0.92 -0.68 -1.6 -1.56 -1.6 s-1.6 0.68 -1.6 1.6 l0 3.64 l7.04 9.72 l0 5.12 c0 3 -2.44 5.48 -5.44 5.48 z M48.84 40 l-1.44 -9.88 l-4.04 0 l-1.32 9.88 l-3.84 0 l4.32 -28.6 l5.16 0 l5 28.6 l-3.84 0 z M43.88 26.32 l2.96 0 l-1.52 -10.4 z M58.440000000000005 36.24 l5.52 0 l0 3.76 l-9.28 0 l0 -28.72 l3.76 0 l0 24.96 z M75.88000000000001 36.28 l-0.08 3.72 l-9.84 0 l4.16 -24.84 l-4.08 0 l0 -3.72 l8.56 0 l-4.16 24.84 l5.44 0 z M88.52000000000001 40 l-1.44 -9.88 l-4.04 0 l-1.32 9.88 l-3.84 0 l4.32 -28.6 l5.16 0 l5 28.6 l-3.84 0 z M83.56 26.32 l2.96 0 l-1.52 -10.4 z"></path></g>
			</g>
		</svg>
	